{"title":"Mardi.Gras.Spring.Break.2011 DvDRip XviD Ac3 Feel-Free","uid":6968011,"size":1307980103,"categoryP":"video","categoryS":"movies","magnet":"?xt=urn:btih:3b7fbc1e8ee383119e84c01a7d00681ad27e8d99&amp;dn=Mardi.Gras.Spring.Break.2011+DvDRip+XviD+Ac3+Feel-Free&amp;tr=udp%3A%2F%2Ftracker.openbittorrent.com%3A80&amp;tr=udp%3A%2F%2Fopen.demonii.com%3A1337&amp;tr=udp%3A%2F%2Ftracker.coppersurfer.tk%3A6969&amp;tr=udp%3A%2F%2Fexodus.desync.com%3A6969","seeders":0,"leechers":1,"uploader":"HeroMaster","files":-1,"time":1326990367,"description":"::::::: Feel Free Presents ::::::::\n\n\n:::: Mardi Gras Spring Break 2011 DvDRip ::::\n\n\n::Information::\n\n\nGenre:Comedy\nLanguage:English\nIMDb:http://www.imdb.com/title/tt1083462/\nSource:DVDR Thanks!\nFeel Free Exclusive!\n\n\n::Details::\n\n\nFormat : AVI\nFormat/Info : Audio Video Interleave\nFile size : 1.22 GiB\nDuration : 1h 24mn\nOverall bit rate : 2 047 Kbps\n\n\n:Video::\n\n\nID : 0\nFormat : MPEG-4 Visual\nFormat profile : Advanced Simple@L5\nFormat settings, BVOP : 1\nFormat settings, QPel : No\nFormat settings, GMC : No warppoints\nFormat settings, Matrix : Default (H.263)\nCodec ID : XVID\nCodec ID/Hint : XviD\nDuration : 1h 24mn\nBit rate : 1 590 Kbps\nWidth : 640 pixels\nHeight : 344 pixels\nDisplay aspect ratio : 1.860\nFrame rate : 25.000 fps\nColor space : YUV\nChroma subsampling : 4:2:0\nBit depth : 8 bits\nScan type : Progressive\nCompression mode : Lossy\nBits/(Pixel*Frame) : 0.289\nStream size : 966 MiB (78%)\nWriting library : XviD 1.2.1 (UTC 2008-12-04)\n\n\n::Audio::\n\n\nID : 1\nFormat : AC-3\nFormat/Info : Audio Coding 3\nMode extension : CM (complete main)\nCodec ID : 2000\nDuration : 1h 24mn\nBit rate mode : Constant\nBit rate : 448 Kbps\nChannel(s) : 6 channels\nChannel positions : Front: L C R, Side: L R, LFE\nSampling rate : 48.0 KHz\nBit depth : 16 bits\nCompression mode : Lossy\nStream size : 272 MiB (22%)\nAlignment : Aligned on interleaves\nInterleave, duration : 40 ms (1.00 video frame)\nInterleave, preload duration : 512 ms\n\n\n::Plot::\n\n\nA group of college buddies sow their wild oats in New Orleans.\n\n\n::Poster::\n\n &lt;a href=&quot;\nhttp://i.imgur.com/Uno2l.jpg&quot; rel=&quot;nofollow&quot; target=&quot;_NEW&quot;&gt;\nhttp://i.imgur.com/Uno2l.jpg&lt;/a&gt;\n\n\n::Screens::\n\n &lt;a href=&quot;\nhttp://i.imgur.com/30jIs.png&quot; rel=&quot;nofollow&quot; target=&quot;_NEW&quot;&gt;\nhttp://i.imgur.com/30jIs.png&lt;/a&gt;\n\n &lt;a href=&quot;\nhttp://i.imgur.com/NLieg.png&quot; rel=&quot;nofollow&quot; target=&quot;_NEW&quot;&gt;\nhttp://i.imgur.com/NLieg.png&lt;/a&gt;\n\n &lt;a href=&quot;\nhttp://i.imgur.com/iNfJx.png&quot; rel=&quot;nofollow&quot; target=&quot;_NEW&quot;&gt;\nhttp://i.imgur.com/iNfJx.png&lt;/a&gt;\n\n\nENJOY!","torrent":{"xt":"urn:btih:3b7fbc1e8ee383119e84c01a7d00681ad27e8d99","amp;dn":"Mardi.Gras.Spring.Break.2011+DvDRip+XviD+Ac3+Feel-Free","amp;tr":["udp%3A%2F%2Ftracker.openbittorrent.com%3A80","udp%3A%2F%2Fopen.demonii.com%3A1337","udp%3A%2F%2Ftracker.coppersurfer.tk%3A6969","udp%3A%2F%2Fexodus.desync.com%3A6969"],"infoHash":"3b7fbc1e8ee383119e84c01a7d00681ad27e8d99","infoHashBuffer":{"type":"Buffer","data":[59,127,188,30,142,227,131,17,158,132,192,26,125,0,104,26,210,126,141,153]},"announce":[],"urlList":[]}}